Simulation
nRows=19
nColumns=15
endheader
time  TH_x TH_y TH_z SC_y  SC_z  SC_x  AC_y  AC_z  AC_x  GH_y  GH_z  GH_yy  EL_x  PS_y
1.3999999999999986  0.000000  0.000000  0.000000  -33.026460697212414  10.596581551728857  33.23322302010605  52.227559526847394  10.083035107006927  7.613709514108949  0.3995423380188066  57.42175676395574  7.335495618067359  13.741376550666763  120.000000
1.4279999999999986  0.000000  0.000000  0.000000  -33.15912825413915  10.674721439048069  33.64796730908392  52.29756330316358  9.828727281903406  7.627202222263669  0.37387261135467775  57.540491289828715  7.406002870092984  13.702581590722469  120.000000
1.4559999999999986  0.000000  0.000000  0.000000  -33.23695138413983  10.732692171923329  33.94978517269387  52.36318470242854  9.60185231496547  7.55514413834219  0.41690927089897134  57.59446844932046  7.482097162620618  13.611568296633628  120.000000
1.4839999999999987  0.000000  0.000000  0.000000  -33.25444547238158  10.762981957803044  34.139337798145434  52.42306455676589  9.407621543370839  7.396848529896282  0.5212725333882424  57.560809776051315  7.556473961807326  13.486296653305827  120.000000
1.5119999999999985  0.000000  0.000000  0.000000  -33.20820345323594  10.76097908631877  34.21308342216567  52.47634932295859  9.24856875720129  7.1520010284475335  0.6814439393651393  57.4192827753135  7.617251039494445  13.342438364322796  120.000000
1.5399999999999985  0.000000  0.000000  0.000000  -33.10405440674366  10.725257680370376  34.172704433168306  52.52314154327516  9.12406733098112  6.821234773581573  0.8953412977906808  57.15199770263454  7.64972476101456  13.192022573527552  120.000000
1.5679999999999985  0.000000  0.000000  0.000000  -32.94745012558597  10.655757158898991  34.01599059884459  52.562427800201746  9.033785285773979  6.407529032996945  1.1632291674182913  56.74929750215054  7.636653700245878  13.043384325568908  120.000000
1.5959999999999985  0.000000  0.000000  0.000000  -32.75021466495952  10.556331933015235  33.74602017094748  52.594252887720096  8.975568676494975  5.916167961277139  1.4878829319511795  56.2048781546949  7.561757731897332  12.90216492837273  120.000000
1.6239999999999983  0.000000  0.000000  0.000000  -32.518247700793566  10.428592917571297  33.359793478500706  52.61877000444224  8.94627435108942  5.355455977395927  1.872721351135066  55.51898871469978  7.411642463418502  12.772429822809146  120.000000
1.6519999999999984  0.000000  0.000000  0.000000  -32.259263219575175  10.274833236623568  32.85605894185516  52.637322863064554  8.940187280699222  4.736753772675218  2.3204574221222307  54.692766041814316  7.179001355093986  12.657173657523657  120.000000
1.6799999999999984  0.000000  0.000000  0.000000  -31.9756866289982  10.09457804516448  32.228374136068915  52.65165544333431  8.952706233593563  4.074580586469845  2.83071727588898  53.7332936797154  6.863727975439074  12.558068914615829  120.000000
1.7079999999999984  0.000000  0.000000  0.000000  -31.6728192886968  9.887757055065261  31.476244910706203  52.66359868654467  8.979064901463675  3.386668942167991  3.4005629047939183  52.65158933540887  6.4729252398561705  12.475392584927018  120.000000
1.7359999999999982  0.000000  0.000000  0.000000  -31.354084813615156  9.653215319921124  30.59733583386974  52.67481724999076  9.01442485080021  2.6933906129153886  4.02540616414539  51.46692056109146  6.020331578457663  12.408778761345552  120.000000
1.7639999999999982  0.000000  0.000000  0.000000  -31.02757493322432  9.391654358651968  29.598294280773324  52.686226445955484  9.052229828443142  2.0153736902200605  4.699750983605252  50.20044862974869  5.525372015486112  12.357307330767844  120.000000
1.7919999999999983  0.000000  0.000000  0.000000  -30.69942040800952  9.103866656027975  28.482364966412735  52.697003069504056  9.08694817090657  1.3733377770467219  5.4175957724537325  48.877711251462756  5.0124822955619  12.31999374932952  120.000000
1.8199999999999983  0.000000  0.000000  0.000000  -30.37898391390932  8.792824080458388  27.260175255690424  52.70422892632193  9.112542102058155  0.7860290045880937  6.172594862464542  47.52025181414242  4.509491891478003  12.29577676414458  120.000000
1.8479999999999983  0.000000  0.000000  0.000000  -30.071612752232255  8.461167598421962  25.938524071126015  52.70230925650869  9.12586718526657  0.27093115208718177  6.957925799369427  46.148325495066025  4.046042464589743  12.283553243035138  120.000000
1.8759999999999981  0.000000  0.000000  0.000000  -29.783307992754455  8.113920062662496  24.533666889511256  52.68411770535516  9.124347009772444  -0.1588997288667658  7.764958545304027  44.77455043584115  3.6521247073195484  12.281556227618761  120.000000
1.9039999999999981  0.000000  0.000000  0.000000  -29.514879489534653  7.75699859450057  23.05986025004624  52.64218168518667  9.109474032243895  -0.4938294125874616  8.58360782303842  43.40750833250917  3.3556276552354842  12.287208707162206  120.000000
